<svg xmlns="http://www.w3.org/2000/svg" xmlns:xlink="http://www.w3.org/1999/xlink" width="848" height="652.46"><rect width="848" height="652.46" rx="5" ry="5" class="a"/><svg y="0%" x="0%"><circle cx="20" cy="20" r="6" fill="#ff5f58"/><circle cx="40" cy="20" r="6" fill="#ffbd2e"/><circle cx="60" cy="20" r="6" fill="#18c132"/></svg><svg height="564.46" viewBox="0 0 78 56.446" width="780" x="29" xmlns="http://www.w3.org/2000/svg" xmlns:xlink="http://www.w3.org/1999/xlink" y="64"><style>@keyframes i{0%{transform:translateX(0)}5.9%{transform:translateX(-78px)}6.2%{transform:translateX(-156px)}6.6%{transform:translateX(-234px)}6.9%{transform:translateX(-312px)}7.3%{transform:translateX(-390px)}7.6%{transform:translateX(-468px)}8%{transform:translateX(-546px)}8.3%{transform:translateX(-624px)}8.7%{transform:translateX(-702px)}9%{transform:translateX(-780px)}9.4%{transform:translateX(-858px)}9.7%{transform:translateX(-936px)}10.1%{transform:translateX(-1014px)}10.4%{transform:translateX(-1092px)}10.8%{transform:translateX(-1170px)}11.1%{transform:translateX(-1248px)}11.5%{transform:translateX(-1326px)}11.8%{transform:translateX(-1404px)}12.2%{transform:translateX(-1482px)}12.5%{transform:translateX(-1560px)}12.9%{transform:translateX(-1638px)}13.2%{transform:translateX(-1716px)}13.6%{transform:translateX(-1794px)}13.9%{transform:translateX(-1872px)}14.3%{transform:translateX(-1950px)}14.6%{transform:translateX(-2028px)}15%{transform:translateX(-2106px)}15.3%{transform:translateX(-2184px)}15.7%{transform:translateX(-2262px)}16%{transform:translateX(-2340px)}16.4%{transform:translateX(-2418px)}16.8%{transform:translateX(-2496px)}17.1%{transform:translateX(-2574px)}17.5%{transform:translateX(-2652px)}17.8%{transform:translateX(-2730px)}18.2%{transform:translateX(-2808px)}18.5%{transform:translateX(-2886px)}18.9%{transform:translateX(-2964px)}19.2%{transform:translateX(-3042px)}19.6%{transform:translateX(-3120px)}19.9%{transform:translateX(-3198px)}20.3%{transform:translateX(-3276px)}20.6%{transform:translateX(-3354px)}21%{transform:translateX(-3432px)}21.3%{transform:translateX(-3510px)}21.7%{transform:translateX(-3588px)}22%{transform:translateX(-3666px)}22.4%{transform:translateX(-3744px)}22.7%{transform:translateX(-3822px)}23.1%{transform:translateX(-3900px)}23.4%{transform:translateX(-3978px)}23.8%{transform:translateX(-4056px)}24.1%{transform:translateX(-4134px)}24.5%{transform:translateX(-4212px)}24.8%{transform:translateX(-4290px)}25.2%{transform:translateX(-4368px)}25.5%{transform:translateX(-4446px)}25.9%{transform:translateX(-4524px)}26.2%{transform:translateX(-4602px)}26.6%{transform:translateX(-4680px)}26.9%{transform:translateX(-4758px)}27.3%{transform:translateX(-4836px)}27.6%{transform:translateX(-4914px)}28%{transform:translateX(-4992px)}28.3%{transform:translateX(-5070px)}28.7%{transform:translateX(-5148px)}29.1%{transform:translateX(-5226px)}29.4%{transform:translateX(-5304px)}29.8%{transform:translateX(-5382px)}30.1%{transform:translateX(-5460px)}30.5%{transform:translateX(-5538px)}30.8%{transform:translateX(-5616px)}31.2%{transform:translateX(-5694px)}31.5%{transform:translateX(-5772px)}31.9%{transform:translateX(-5850px)}32.2%{transform:translateX(-5928px)}32.6%{transform:translateX(-6006px)}32.9%{transform:translateX(-6084px)}33.3%{transform:translateX(-6162px)}33.6%{transform:translateX(-6240px)}34%{transform:translateX(-6318px)}34.3%{transform:translateX(-6396px)}34.7%{transform:translateX(-6474px)}35%{transform:translateX(-6552px)}35.4%{transform:translateX(-6630px)}43.2%{transform:translateX(-6708px)}48.1%{transform:translateX(-6786px)}50.4%{transform:translateX(-6864px)}52.8%{transform:translateX(-6942px)}55.1%{transform:translateX(-7020px)}57.4%{transform:translateX(-7098px)}59.8%{transform:translateX(-7176px)}62.1%{transform:translateX(-7254px)}64.5%{transform:translateX(-7332px)}66.8%{transform:translateX(-7410px)}69.2%{transform:translateX(-7488px)}71.5%{transform:translateX(-7566px)}73.8%{transform:translateX(-7644px)}76.2%{transform:translateX(-7722px)}78.5%{transform:translateX(-7800px)}80.9%{transform:translateX(-7878px)}83.2%{transform:translateX(-7956px)}85.6%{transform:translateX(-8034px)}87.9%{transform:translateX(-8112px)}90.2%{transform:translateX(-8190px)}to{transform:translateX(-8268px)}}.a{fill:#282d35}.f{fill:#b9c0cb;white-space:pre}</style><g font-family="Monaco,Consolas,Menlo,'Bitstream Vera Sans Mono','Powerline Symbols',monospace" font-size="1.67"><defs><symbol id="1"><text y="1.67" class="f">$</text></symbol><symbol id="2"><text y="1.67" class="f">$</text><text x="2.004" y="1.67" class="f">bun</text></symbol><symbol id="3"><text y="1.67" class="f">$</text><text x="2.004" y="1.67" class="f">bun</text><text x="6.012" y="1.67" class="f">run</text></symbol><symbol id="4"><text y="1.67" class="f">$</text><text x="2.004" y="1.67" class="f">bun</text><text x="6.012" y="1.67" class="f">run</text><text x="10.02" y="1.67" class="f">src/cli.ts</text></symbol><symbol id="5"><text y="1.67" class="f">$</text><text x="2.004" y="1.67" class="f">bun</text><text x="6.012" y="1.67" class="f">run</text><text x="10.02" y="1.67" class="f">src/cli.ts</text><text x="21.042" y="1.67" class="f">--agent</text></symbol><symbol id="6"><text y="1.67" class="f">$</text><text x="2.004" y="1.67" class="f">bun</text><text x="6.012" y="1.67" class="f">run</text><text x="10.02" y="1.67" class="f">src/cli.ts</text><text x="21.042" y="1.67" class="f">--agent</text><text x="29.058" y="1.67" class="f">mock</text></symbol><symbol id="7"><text y="1.67" class="f">$</text><text x="2.004" y="1.67" class="f">bun</text><text x="6.012" y="1.67" class="f">run</text><text x="10.02" y="1.67" class="f">src/cli.ts</text><text x="21.042" y="1.67" class="f">--agent</text><text x="29.058" y="1.67" class="f">mock</text><text x="34.068" y="1.67" class="f">--config</text></symbol><symbol id="8"><text y="1.67" class="f">$</text><text x="2.004" y="1.67" class="f">bun</text><text x="6.012" y="1.67" class="f">run</text><text x="10.02" y="1.67" class="f">src/cli.ts</text><text x="21.042" y="1.67" class="f">--agent</text><text x="29.058" y="1.67" class="f">mock</text><text x="34.068" y="1.67" class="f">--config</text><text x="43.086" y="1.67" class="f">examples/bench.yaml</text></symbol><symbol id="9"><text y="1.67" class="f">$</text><text x="2.004" y="1.67" class="f">bun</text><text x="6.012" y="1.67" class="f">run</text><text x="10.02" y="1.67" class="f">src/cli.ts</text><text x="21.042" y="1.67" class="f">--agent</text><text x="29.058" y="1.67" class="f">mock</text><text x="34.068" y="1.67" class="f">--config</text><text x="43.086" y="1.67" class="f">examples/bench.yaml</text><text x="63.126" y="1.67" class="f">--repo</text></symbol><symbol id="10"><text y="1.67" class="f">$</text><text x="2.004" y="1.67" class="f">bun</text><text x="6.012" y="1.67" class="f">run</text><text x="10.02" y="1.67" class="f">src/cli.ts</text><text x="21.042" y="1.67" class="f">--agent</text><text x="29.058" y="1.67" class="f">mock</text><text x="34.068" y="1.67" class="f">--config</text><text x="43.086" y="1.67" class="f">examples/bench.yaml</text><text x="63.126" y="1.67" class="f">--repo</text><text x="70.14" y="1.67" class="f">examples</text></symbol><symbol id="11"><text y="1.67" class="f">/fixture</text></symbol><symbol id="12"><text x="2.004" y="1.67" class="f">task</text><text x="7.014" y="1.67" class="f">add-readme-badge:</text><text x="25.05" y="1.67" class="f">with</text><text x="30.06" y="1.67" class="f">context</text><text x="38.076" y="1.67" class="f">(3</text><text x="41.082" y="1.67" class="f">seed(s))</text></symbol><symbol id="13"><text x="2.004" y="1.67" class="f">task</text><text x="7.014" y="1.67" class="f">add-readme-badge:</text><text x="25.05" y="1.67" class="f">without</text><text x="33.066" y="1.67" class="f">context</text><text x="41.082" y="1.67" class="f">(3</text><text x="44.088" y="1.67" class="f">seed(s))</text></symbol><symbol id="14"><text x="2.004" y="1.67" class="f">task</text><text x="7.014" y="1.67" class="f">write-changelog:</text><text x="24.048" y="1.67" class="f">with</text><text x="29.058" y="1.67" class="f">context</text><text x="37.074" y="1.67" class="f">(3</text><text x="40.08" y="1.67" class="f">seed(s))</text></symbol><symbol id="15"><text x="2.004" y="1.67" class="f">task</text><text x="7.014" y="1.67" class="f">write-changelog:</text><text x="24.048" y="1.67" class="f">without</text><text x="32.064" y="1.67" class="f">context</text><text x="40.08" y="1.67" class="f">(3</text><text x="43.086" y="1.67" class="f">seed(s))</text></symbol><symbol id="16"><text x="2.004" y="1.67" class="f">task</text><text x="7.014" y="1.67" class="f">fix-lint-config:</text><text x="24.048" y="1.67" class="f">with</text><text x="29.058" y="1.67" class="f">context</text><text x="37.074" y="1.67" class="f">(3</text><text x="40.08" y="1.67" class="f">seed(s))</text></symbol><symbol id="17"><text x="2.004" y="1.67" class="f">task</text><text x="7.014" y="1.67" class="f">fix-lint-config:</text><text x="24.048" y="1.67" class="f">without</text><text x="32.064" y="1.67" class="f">context</text><text x="40.08" y="1.67" class="f">(3</text><text x="43.086" y="1.67" class="f">seed(s))</text></symbol><symbol id="18"><text x="2.004" y="1.67" class="f">task</text><text x="7.014" y="1.67" class="f">refactor-helpers:</text><text x="25.05" y="1.67" class="f">with</text><text x="30.06" y="1.67" class="f">context</text><text x="38.076" y="1.67" class="f">(3</text><text x="41.082" y="1.67" class="f">seed(s))</text></symbol><symbol id="19"><text x="2.004" y="1.67" class="f">task</text><text x="7.014" y="1.67" class="f">refactor-helpers:</text><text x="25.05" y="1.67" class="f">without</text><text x="33.066" y="1.67" class="f">context</text><text x="41.082" y="1.67" class="f">(3</text><text x="44.088" y="1.67" class="f">seed(s))</text></symbol><symbol id="20"><text y="1.67" class="f">TASK</text><text x="18.036" y="1.67" class="f">WITH</text><text x="24.048" y="1.67" class="f">WITHOUT</text><text x="33.066" y="1.67" class="f">UPLIFT</text></symbol><symbol id="21"><text y="1.67" class="f">----------------</text><text x="18.036" y="1.67" class="f">----</text><text x="24.048" y="1.67" class="f">-------</text><text x="33.066" y="1.67" class="f">------</text></symbol><symbol id="22"><text y="1.67" class="f">add-readme-badge</text><text x="18.036" y="1.67" class="f">100%</text><text x="24.048" y="1.67" class="f">100%</text><text x="33.066" y="1.67" class="f">0%</text></symbol><symbol id="23"><text y="1.67" class="f">write-changelog</text><text x="18.036" y="1.67" class="f">100%</text><text x="24.048" y="1.67" class="f">100%</text><text x="33.066" y="1.67" class="f">0%</text></symbol><symbol id="24"><text y="1.67" class="f">fix-lint-config</text><text x="18.036" y="1.67" class="f">100%</text><text x="24.048" y="1.67" class="f">0%</text><text x="33.066" y="1.67" class="f">+100%</text></symbol><symbol id="25"><text y="1.67" class="f">refactor-helpers</text><text x="18.036" y="1.67" class="f">100%</text><text x="24.048" y="1.67" class="f">0%</text><text x="33.066" y="1.67" class="f">+100%</text></symbol><symbol id="26"><text y="1.67" class="f">context</text><text x="8.016" y="1.67" class="f">file:</text><text x="14.028" y="1.67" class="f">AGENTS.md</text><text x="26.052" y="1.67" class="f">seeds:</text><text x="33.066" y="1.67" class="f">3</text></symbol><symbol id="27"><text y="1.67" class="f">aggregate</text><text x="10.02" y="1.67" class="f">uplift:</text><text x="18.036" y="1.67" class="f">+50%</text></symbol><symbol id="a"><path fill="transparent" d="M0 0h78v27H0z"/></symbol><symbol id="b"><path fill="#6f7683" d="M0 0h1.102v2.171H0z"/></symbol></defs><path class="a" d="M0 0h78v56.446H0z"/><g style="animation-duration:5.122s;animation-iteration-count:infinite;animation-name:i;animation-timing-function:steps(1,end)"><svg width="8346"><svg><use xlink:href="#a"/><use xlink:href="#b" x="-.004"/></svg><svg x="78"><use xlink:href="#a"/><use xlink:href="#b" x="1.996"/><use xlink:href="#1"/></svg><svg x="156"><use xlink:href="#a"/><use xlink:href="#b" x="2.996"/><text y="1.67" class="f">$</text><text x="2.004" y="1.67" class="f">b</text></svg><svg x="234"><use xlink:href="#a"/><use xlink:href="#b" x="3.996"/><text y="1.67" class="f">$</text><text x="2.004" y="1.67" class="f">bu</text></svg><svg x="312"><use xlink:href="#a"/><use xlink:href="#b" x="4.996"/><use xlink:href="#2"/></svg><svg x="390"><use xlink:href="#a"/><use xlink:href="#b" x="5.996"/><use xlink:href="#2"/></svg><svg x="468"><use xlink:href="#a"/><use xlink:href="#b" x="6.996"/><text y="1.67" class="f">$</text><text x="2.004" y="1.67" class="f">bun</text><text x="6.012" y="1.67" class="f">r</text></svg><svg x="546"><use xlink:href="#a"/><use xlink:href="#b" x="7.996"/><text y="1.67" class="f">$</text><text x="2.004" y="1.67" class="f">bun</text><text x="6.012" y="1.67" class="f">ru</text></svg><svg x="624"><use xlink:href="#a"/><use xlink:href="#b" x="8.996"/><use xlink:href="#3"/></svg><svg x="702"><use xlink:href="#a"/><use xlink:href="#b" x="9.996"/><use xlink:href="#3"/></svg><svg x="780"><use xlink:href="#a"/><use xlink:href="#b" x="10.996"/><text y="1.67" class="f">$</text><text x="2.004" y="1.67" class="f">bun</text><text x="6.012" y="1.67" class="f">run</text><text x="10.02" y="1.67" class="f">s</text></svg><svg x="858"><use xlink:href="#a"/><use xlink:href="#b" x="11.996"/><text y="1.67" class="f">$</text><text x="2.004" y="1.67" class="f">bun</text><text x="6.012" y="1.67" class="f">run</text><text x="10.02" y="1.67" class="f">sr</text></svg><svg x="936"><use xlink:href="#a"/><use xlink:href="#b" x="12.996"/><text y="1.67" class="f">$</text><text x="2.004" y="1.67" class="f">bun</text><text x="6.012" y="1.67" class="f">run</text><text x="10.02" y="1.67" class="f">src</text></svg><svg x="1014"><use xlink:href="#a"/><use xlink:href="#b" x="13.996"/><text y="1.67" class="f">$</text><text x="2.004" y="1.67" class="f">bun</text><text x="6.012" y="1.67" class="f">run</text><text x="10.02" y="1.67" class="f">src/</text></svg><svg x="1092"><use xlink:href="#a"/><use xlink:href="#b" x="14.996"/><text y="1.67" class="f">$</text><text x="2.004" y="1.67" class="f">bun</text><text x="6.012" y="1.67" class="f">run</text><text x="10.02" y="1.67" class="f">src/c</text></svg><svg x="1170"><use xlink:href="#a"/><use xlink:href="#b" x="15.996"/><text y="1.67" class="f">$</text><text x="2.004" y="1.67" class="f">bun</text><text x="6.012" y="1.67" class="f">run</text><text x="10.02" y="1.67" class="f">src/cl</text></svg><svg x="1248"><use xlink:href="#a"/><use xlink:href="#b" x="16.996"/><text y="1.67" class="f">$</text><text x="2.004" y="1.67" class="f">bun</text><text x="6.012" y="1.67" class="f">run</text><text x="10.02" y="1.67" class="f">src/cli</text></svg><svg x="1326"><use xlink:href="#a"/><use xlink:href="#b" x="17.996"/><text y="1.67" class="f">$</text><text x="2.004" y="1.67" class="f">bun</text><text x="6.012" y="1.67" class="f">run</text><text x="10.02" y="1.67" class="f">src/cli.</text></svg><svg x="1404"><use xlink:href="#a"/><use xlink:href="#b" x="18.996"/><text y="1.67" class="f">$</text><text x="2.004" y="1.67" class="f">bun</text><text x="6.012" y="1.67" class="f">run</text><text x="10.02" y="1.67" class="f">src/cli.t</text></svg><svg x="1482"><use xlink:href="#a"/><use xlink:href="#b" x="19.996"/><use xlink:href="#4"/></svg><svg x="1560"><use xlink:href="#a"/><use xlink:href="#b" x="20.996"/><use xlink:href="#4"/></svg><svg x="1638"><use xlink:href="#a"/><use xlink:href="#b" x="21.996"/><text y="1.67" class="f">$</text><text x="2.004" y="1.67" class="f">bun</text><text x="6.012" y="1.67" class="f">run</text><text x="10.02" y="1.67" class="f">src/cli.ts</text><text x="21.042" y="1.67" class="f">-</text></svg><svg x="1716"><use xlink:href="#a"/><use xlink:href="#b" x="22.996"/><text y="1.67" class="f">$</text><text x="2.004" y="1.67" class="f">bun</text><text x="6.012" y="1.67" class="f">run</text><text x="10.02" y="1.67" class="f">src/cli.ts</text><text x="21.042" y="1.67" class="f">--</text></svg><svg x="1794"><use xlink:href="#a"/><use xlink:href="#b" x="23.996"/><text y="1.67" class="f">$</text><text x="2.004" y="1.67" class="f">bun</text><text x="6.012" y="1.67" class="f">run</text><text x="10.02" y="1.67" class="f">src/cli.ts</text><text x="21.042" y="1.67" class="f">--a</text></svg><svg x="1872"><use xlink:href="#a"/><use xlink:href="#b" x="24.996"/><text y="1.67" class="f">$</text><text x="2.004" y="1.67" class="f">bun</text><text x="6.012" y="1.67" class="f">run</text><text x="10.02" y="1.67" class="f">src/cli.ts</text><text x="21.042" y="1.67" class="f">--ag</text></svg><svg x="1950"><use xlink:href="#a"/><use xlink:href="#b" x="25.996"/><text y="1.67" class="f">$</text><text x="2.004" y="1.67" class="f">bun</text><text x="6.012" y="1.67" class="f">run</text><text x="10.02" y="1.67" class="f">src/cli.ts</text><text x="21.042" y="1.67" class="f">--age</text></svg><svg x="2028"><use xlink:href="#a"/><use xlink:href="#b" x="26.996"/><text y="1.67" class="f">$</text><text x="2.004" y="1.67" class="f">bun</text><text x="6.012" y="1.67" class="f">run</text><text x="10.02" y="1.67" class="f">src/cli.ts</text><text x="21.042" y="1.67" class="f">--agen</text></svg><svg x="2106"><use xlink:href="#a"/><use xlink:href="#b" x="27.996"/><use xlink:href="#5"/></svg><svg x="2184"><use xlink:href="#a"/><use xlink:href="#b" x="28.996"/><use xlink:href="#5"/></svg><svg x="2262"><use xlink:href="#a"/><use xlink:href="#b" x="29.996"/><text y="1.67" class="f">$</text><text x="2.004" y="1.67" class="f">bun</text><text x="6.012" y="1.67" class="f">run</text><text x="10.02" y="1.67" class="f">src/cli.ts</text><text x="21.042" y="1.67" class="f">--agent</text><text x="29.058" y="1.67" class="f">m</text></svg><svg x="2340"><use xlink:href="#a"/><use xlink:href="#b" x="30.996"/><text y="1.67" class="f">$</text><text x="2.004" y="1.67" class="f">bun</text><text x="6.012" y="1.67" class="f">run</text><text x="10.02" y="1.67" class="f">src/cli.ts</text><text x="21.042" y="1.67" class="f">--agent</text><text x="29.058" y="1.67" class="f">mo</text></svg><svg x="2418"><use xlink:href="#a"/><use xlink:href="#b" x="31.996"/><text y="1.67" class="f">$</text><text x="2.004" y="1.67" class="f">bun</text><text x="6.012" y="1.67" class="f">run</text><text x="10.02" y="1.67" class="f">src/cli.ts</text><text x="21.042" y="1.67" class="f">--agent</text><text x="29.058" y="1.67" class="f">moc</text></svg><svg x="2496"><use xlink:href="#a"/><use xlink:href="#b" x="32.996"/><use xlink:href="#6"/></svg><svg x="2574"><use xlink:href="#a"/><use xlink:href="#b" x="33.996"/><use xlink:href="#6"/></svg><svg x="2652"><use xlink:href="#a"/><use xlink:href="#b" x="34.996"/><text y="1.67" class="f">$</text><text x="2.004" y="1.67" class="f">bun</text><text x="6.012" y="1.67" class="f">run</text><text x="10.02" y="1.67" class="f">src/cli.ts</text><text x="21.042" y="1.67" class="f">--agent</text><text x="29.058" y="1.67" class="f">mock</text><text x="34.068" y="1.67" class="f">-</text></svg><svg x="2730"><use xlink:href="#a"/><use xlink:href="#b" x="35.996"/><text y="1.67" class="f">$</text><text x="2.004" y="1.67" class="f">bun</text><text x="6.012" y="1.67" class="f">run</text><text x="10.02" y="1.67" class="f">src/cli.ts</text><text x="21.042" y="1.67" class="f">--agent</text><text x="29.058" y="1.67" class="f">mock</text><text x="34.068" y="1.67" class="f">--</text></svg><svg x="2808"><use xlink:href="#a"/><use xlink:href="#b" x="36.996"/><text y="1.67" class="f">$</text><text x="2.004" y="1.67" class="f">bun</text><text x="6.012" y="1.67" class="f">run</text><text x="10.02" y="1.67" class="f">src/cli.ts</text><text x="21.042" y="1.67" class="f">--agent</text><text x="29.058" y="1.67" class="f">mock</text><text x="34.068" y="1.67" class="f">--c</text></svg><svg x="2886"><use xlink:href="#a"/><use xlink:href="#b" x="37.996"/><text y="1.67" class="f">$</text><text x="2.004" y="1.67" class="f">bun</text><text x="6.012" y="1.67" class="f">run</text><text x="10.02" y="1.67" class="f">src/cli.ts</text><text x="21.042" y="1.67" class="f">--agent</text><text x="29.058" y="1.67" class="f">mock</text><text x="34.068" y="1.67" class="f">--co</text></svg><svg x="2964"><use xlink:href="#a"/><use xlink:href="#b" x="38.996"/><text y="1.67" class="f">$</text><text x="2.004" y="1.67" class="f">bun</text><text x="6.012" y="1.67" class="f">run</text><text x="10.02" y="1.67" class="f">src/cli.ts</text><text x="21.042" y="1.67" class="f">--agent</text><text x="29.058" y="1.67" class="f">mock</text><text x="34.068" y="1.67" class="f">--con</text></svg><svg x="3042"><use xlink:href="#a"/><use xlink:href="#b" x="39.996"/><text y="1.67" class="f">$</text><text x="2.004" y="1.67" class="f">bun</text><text x="6.012" y="1.67" class="f">run</text><text x="10.02" y="1.67" class="f">src/cli.ts</text><text x="21.042" y="1.67" class="f">--agent</text><text x="29.058" y="1.67" class="f">mock</text><text x="34.068" y="1.67" class="f">--conf</text></svg><svg x="3120"><use xlink:href="#a"/><use xlink:href="#b" x="40.996"/><text y="1.67" class="f">$</text><text x="2.004" y="1.67" class="f">bun</text><text x="6.012" y="1.67" class="f">run</text><text x="10.02" y="1.67" class="f">src/cli.ts</text><text x="21.042" y="1.67" class="f">--agent</text><text x="29.058" y="1.67" class="f">mock</text><text x="34.068" y="1.67" class="f">--confi</text></svg><svg x="3198"><use xlink:href="#a"/><use xlink:href="#b" x="41.996"/><use xlink:href="#7"/></svg><svg x="3276"><use xlink:href="#a"/><use xlink:href="#b" x="42.996"/><use xlink:href="#7"/></svg><svg x="3354"><use xlink:href="#a"/><use xlink:href="#b" x="43.996"/><text y="1.67" class="f">$</text><text x="2.004" y="1.67" class="f">bun</text><text x="6.012" y="1.67" class="f">run</text><text x="10.02" y="1.67" class="f">src/cli.ts</text><text x="21.042" y="1.67" class="f">--agent</text><text x="29.058" y="1.67" class="f">mock</text><text x="34.068" y="1.67" class="f">--config</text><text x="43.086" y="1.67" class="f">e</text></svg><svg x="3432"><use xlink:href="#a"/><use xlink:href="#b" x="44.996"/><text y="1.67" class="f">$</text><text x="2.004" y="1.67" class="f">bun</text><text x="6.012" y="1.67" class="f">run</text><text x="10.02" y="1.67" class="f">src/cli.ts</text><text x="21.042" y="1.67" class="f">--agent</text><text x="29.058" y="1.67" class="f">mock</text><text x="34.068" y="1.67" class="f">--config</text><text x="43.086" y="1.67" class="f">ex</text></svg><svg x="3510"><use xlink:href="#a"/><use xlink:href="#b" x="45.996"/><text y="1.67" class="f">$</text><text x="2.004" y="1.67" class="f">bun</text><text x="6.012" y="1.67" class="f">run</text><text x="10.02" y="1.67" class="f">src/cli.ts</text><text x="21.042" y="1.67" class="f">--agent</text><text x="29.058" y="1.67" class="f">mock</text><text x="34.068" y="1.67" class="f">--config</text><text x="43.086" y="1.67" class="f">exa</text></svg><svg x="3588"><use xlink:href="#a"/><use xlink:href="#b" x="46.996"/><text y="1.67" class="f">$</text><text x="2.004" y="1.67" class="f">bun</text><text x="6.012" y="1.67" class="f">run</text><text x="10.02" y="1.67" class="f">src/cli.ts</text><text x="21.042" y="1.67" class="f">--agent</text><text x="29.058" y="1.67" class="f">mock</text><text x="34.068" y="1.67" class="f">--config</text><text x="43.086" y="1.67" class="f">exam</text></svg><svg x="3666"><use xlink:href="#a"/><use xlink:href="#b" x="47.996"/><text y="1.67" class="f">$</text><text x="2.004" y="1.67" class="f">bun</text><text x="6.012" y="1.67" class="f">run</text><text x="10.02" y="1.67" class="f">src/cli.ts</text><text x="21.042" y="1.67" class="f">--agent</text><text x="29.058" y="1.67" class="f">mock</text><text x="34.068" y="1.67" class="f">--config</text><text x="43.086" y="1.67" class="f">examp</text></svg><svg x="3744"><use xlink:href="#a"/><use xlink:href="#b" x="48.996"/><text y="1.67" class="f">$</text><text x="2.004" y="1.67" class="f">bun</text><text x="6.012" y="1.67" class="f">run</text><text x="10.02" y="1.67" class="f">src/cli.ts</text><text x="21.042" y="1.67" class="f">--agent</text><text x="29.058" y="1.67" class="f">mock</text><text x="34.068" y="1.67" class="f">--config</text><text x="43.086" y="1.67" class="f">exampl</text></svg><svg x="3822"><use xlink:href="#a"/><use xlink:href="#b" x="49.996"/><text y="1.67" class="f">$</text><text x="2.004" y="1.67" class="f">bun</text><text x="6.012" y="1.67" class="f">run</text><text x="10.02" y="1.67" class="f">src/cli.ts</text><text x="21.042" y="1.67" class="f">--agent</text><text x="29.058" y="1.67" class="f">mock</text><text x="34.068" y="1.67" class="f">--config</text><text x="43.086" y="1.67" class="f">example</text></svg><svg x="3900"><use xlink:href="#a"/><use xlink:href="#b" x="50.996"/><text y="1.67" class="f">$</text><text x="2.004" y="1.67" class="f">bun</text><text x="6.012" y="1.67" class="f">run</text><text x="10.02" y="1.67" class="f">src/cli.ts</text><text x="21.042" y="1.67" class="f">--agent</text><text x="29.058" y="1.67" class="f">mock</text><text x="34.068" y="1.67" class="f">--config</text><text x="43.086" y="1.67" class="f">examples</text></svg><svg x="3978"><use xlink:href="#a"/><use xlink:href="#b" x="51.996"/><text y="1.67" class="f">$</text><text x="2.004" y="1.67" class="f">bun</text><text x="6.012" y="1.67" class="f">run</text><text x="10.02" y="1.67" class="f">src/cli.ts</text><text x="21.042" y="1.67" class="f">--agent</text><text x="29.058" y="1.67" class="f">mock</text><text x="34.068" y="1.67" class="f">--config</text><text x="43.086" y="1.67" class="f">examples/</text></svg><svg x="4056"><use xlink:href="#a"/><use xlink:href="#b" x="52.996"/><text y="1.67" class="f">$</text><text x="2.004" y="1.67" class="f">bun</text><text x="6.012" y="1.67" class="f">run</text><text x="10.02" y="1.67" class="f">src/cli.ts</text><text x="21.042" y="1.67" class="f">--agent</text><text x="29.058" y="1.67" class="f">mock</text><text x="34.068" y="1.67" class="f">--config</text><text x="43.086" y="1.67" class="f">examples/b</text></svg><svg x="4134"><use xlink:href="#a"/><use xlink:href="#b" x="53.996"/><text y="1.67" class="f">$</text><text x="2.004" y="1.67" class="f">bun</text><text x="6.012" y="1.67" class="f">run</text><text x="10.02" y="1.67" class="f">src/cli.ts</text><text x="21.042" y="1.67" class="f">--agent</text><text x="29.058" y="1.67" class="f">mock</text><text x="34.068" y="1.67" class="f">--config</text><text x="43.086" y="1.67" class="f">examples/be</text></svg><svg x="4212"><use xlink:href="#a"/><use xlink:href="#b" x="54.996"/><text y="1.67" class="f">$</text><text x="2.004" y="1.67" class="f">bun</text><text x="6.012" y="1.67" class="f">run</text><text x="10.02" y="1.67" class="f">src/cli.ts</text><text x="21.042" y="1.67" class="f">--agent</text><text x="29.058" y="1.67" class="f">mock</text><text x="34.068" y="1.67" class="f">--config</text><text x="43.086" y="1.67" class="f">examples/ben</text></svg><svg x="4290"><use xlink:href="#a"/><use xlink:href="#b" x="55.996"/><text y="1.67" class="f">$</text><text x="2.004" y="1.67" class="f">bun</text><text x="6.012" y="1.67" class="f">run</text><text x="10.02" y="1.67" class="f">src/cli.ts</text><text x="21.042" y="1.67" class="f">--agent</text><text x="29.058" y="1.67" class="f">mock</text><text x="34.068" y="1.67" class="f">--config</text><text x="43.086" y="1.67" class="f">examples/benc</text></svg><svg x="4368"><use xlink:href="#a"/><use xlink:href="#b" x="56.996"/><text y="1.67" class="f">$</text><text x="2.004" y="1.67" class="f">bun</text><text x="6.012" y="1.67" class="f">run</text><text x="10.02" y="1.67" class="f">src/cli.ts</text><text x="21.042" y="1.67" class="f">--agent</text><text x="29.058" y="1.67" class="f">mock</text><text x="34.068" y="1.67" class="f">--config</text><text x="43.086" y="1.67" class="f">examples/bench</text></svg><svg x="4446"><use xlink:href="#a"/><use xlink:href="#b" x="57.996"/><text y="1.67" class="f">$</text><text x="2.004" y="1.67" class="f">bun</text><text x="6.012" y="1.67" class="f">run</text><text x="10.02" y="1.67" class="f">src/cli.ts</text><text x="21.042" y="1.67" class="f">--agent</text><text x="29.058" y="1.67" class="f">mock</text><text x="34.068" y="1.67" class="f">--config</text><text x="43.086" y="1.67" class="f">examples/bench.</text></svg><svg x="4524"><use xlink:href="#a"/><use xlink:href="#b" x="58.996"/><text y="1.67" class="f">$</text><text x="2.004" y="1.67" class="f">bun</text><text x="6.012" y="1.67" class="f">run</text><text x="10.02" y="1.67" class="f">src/cli.ts</text><text x="21.042" y="1.67" class="f">--agent</text><text x="29.058" y="1.67" class="f">mock</text><text x="34.068" y="1.67" class="f">--config</text><text x="43.086" y="1.67" class="f">examples/bench.y</text></svg><svg x="4602"><use xlink:href="#a"/><use xlink:href="#b" x="59.996"/><text y="1.67" class="f">$</text><text x="2.004" y="1.67" class="f">bun</text><text x="6.012" y="1.67" class="f">run</text><text x="10.02" y="1.67" class="f">src/cli.ts</text><text x="21.042" y="1.67" class="f">--agent</text><text x="29.058" y="1.67" class="f">mock</text><text x="34.068" y="1.67" class="f">--config</text><text x="43.086" y="1.67" class="f">examples/bench.ya</text></svg><svg x="4680"><use xlink:href="#a"/><use xlink:href="#b" x="60.996"/><text y="1.67" class="f">$</text><text x="2.004" y="1.67" class="f">bun</text><text x="6.012" y="1.67" class="f">run</text><text x="10.02" y="1.67" class="f">src/cli.ts</text><text x="21.042" y="1.67" class="f">--agent</text><text x="29.058" y="1.67" class="f">mock</text><text x="34.068" y="1.67" class="f">--config</text><text x="43.086" y="1.67" class="f">examples/bench.yam</text></svg><svg x="4758"><use xlink:href="#a"/><use xlink:href="#b" x="61.996"/><use xlink:href="#8"/></svg><svg x="4836"><use xlink:href="#a"/><use xlink:href="#b" x="62.996"/><use xlink:href="#8"/></svg><svg x="4914"><use xlink:href="#a"/><use xlink:href="#b" x="63.996"/><text y="1.67" class="f">$</text><text x="2.004" y="1.67" class="f">bun</text><text x="6.012" y="1.67" class="f">run</text><text x="10.02" y="1.67" class="f">src/cli.ts</text><text x="21.042" y="1.67" class="f">--agent</text><text x="29.058" y="1.67" class="f">mock</text><text x="34.068" y="1.67" class="f">--config</text><text x="43.086" y="1.67" class="f">examples/bench.yaml</text><text x="63.126" y="1.67" class="f">-</text></svg><svg x="4992"><use xlink:href="#a"/><use xlink:href="#b" x="64.996"/><text y="1.67" class="f">$</text><text x="2.004" y="1.67" class="f">bun</text><text x="6.012" y="1.67" class="f">run</text><text x="10.02" y="1.67" class="f">src/cli.ts</text><text x="21.042" y="1.67" class="f">--agent</text><text x="29.058" y="1.67" class="f">mock</text><text x="34.068" y="1.67" class="f">--config</text><text x="43.086" y="1.67" class="f">examples/bench.yaml</text><text x="63.126" y="1.67" class="f">--</text></svg><svg x="5070"><use xlink:href="#a"/><use xlink:href="#b" x="65.996"/><text y="1.67" class="f">$</text><text x="2.004" y="1.67" class="f">bun</text><text x="6.012" y="1.67" class="f">run</text><text x="10.02" y="1.67" class="f">src/cli.ts</text><text x="21.042" y="1.67" class="f">--agent</text><text x="29.058" y="1.67" class="f">mock</text><text x="34.068" y="1.67" class="f">--config</text><text x="43.086" y="1.67" class="f">examples/bench.yaml</text><text x="63.126" y="1.67" class="f">--r</text></svg><svg x="5148"><use xlink:href="#a"/><use xlink:href="#b" x="66.996"/><text y="1.67" class="f">$</text><text x="2.004" y="1.67" class="f">bun</text><text x="6.012" y="1.67" class="f">run</text><text x="10.02" y="1.67" class="f">src/cli.ts</text><text x="21.042" y="1.67" class="f">--agent</text><text x="29.058" y="1.67" class="f">mock</text><text x="34.068" y="1.67" class="f">--config</text><text x="43.086" y="1.67" class="f">examples/bench.yaml</text><text x="63.126" y="1.67" class="f">--re</text></svg><svg x="5226"><use xlink:href="#a"/><use xlink:href="#b" x="67.996"/><text y="1.67" class="f">$</text><text x="2.004" y="1.67" class="f">bun</text><text x="6.012" y="1.67" class="f">run</text><text x="10.02" y="1.67" class="f">src/cli.ts</text><text x="21.042" y="1.67" class="f">--agent</text><text x="29.058" y="1.67" class="f">mock</text><text x="34.068" y="1.67" class="f">--config</text><text x="43.086" y="1.67" class="f">examples/bench.yaml</text><text x="63.126" y="1.67" class="f">--rep</text></svg><svg x="5304"><use xlink:href="#a"/><use xlink:href="#b" x="68.996"/><use xlink:href="#9"/></svg><svg x="5382"><use xlink:href="#a"/><use xlink:href="#b" x="69.996"/><use xlink:href="#9"/></svg><svg x="5460"><use xlink:href="#a"/><use xlink:href="#b" x="70.996"/><text y="1.67" class="f">$</text><text x="2.004" y="1.67" class="f">bun</text><text x="6.012" y="1.67" class="f">run</text><text x="10.02" y="1.67" class="f">src/cli.ts</text><text x="21.042" y="1.67" class="f">--agent</text><text x="29.058" y="1.67" class="f">mock</text><text x="34.068" y="1.67" class="f">--config</text><text x="43.086" y="1.67" class="f">examples/bench.yaml</text><text x="63.126" y="1.67" class="f">--repo</text><text x="70.14" y="1.67" class="f">e</text></svg><svg x="5538"><use xlink:href="#a"/><use xlink:href="#b" x="71.996"/><text y="1.67" class="f">$</text><text x="2.004" y="1.67" class="f">bun</text><text x="6.012" y="1.67" class="f">run</text><text x="10.02" y="1.67" class="f">src/cli.ts</text><text x="21.042" y="1.67" class="f">--agent</text><text x="29.058" y="1.67" class="f">mock</text><text x="34.068" y="1.67" class="f">--config</text><text x="43.086" y="1.67" class="f">examples/bench.yaml</text><text x="63.126" y="1.67" class="f">--repo</text><text x="70.14" y="1.67" class="f">ex</text></svg><svg x="5616"><use xlink:href="#a"/><use xlink:href="#b" x="72.996"/><text y="1.67" class="f">$</text><text x="2.004" y="1.67" class="f">bun</text><text x="6.012" y="1.67" class="f">run</text><text x="10.02" y="1.67" class="f">src/cli.ts</text><text x="21.042" y="1.67" class="f">--agent</text><text x="29.058" y="1.67" class="f">mock</text><text x="34.068" y="1.67" class="f">--config</text><text x="43.086" y="1.67" class="f">examples/bench.yaml</text><text x="63.126" y="1.67" class="f">--repo</text><text x="70.14" y="1.67" class="f">exa</text></svg><svg x="5694"><use xlink:href="#a"/><use xlink:href="#b" x="73.996"/><text y="1.67" class="f">$</text><text x="2.004" y="1.67" class="f">bun</text><text x="6.012" y="1.67" class="f">run</text><text x="10.02" y="1.67" class="f">src/cli.ts</text><text x="21.042" y="1.67" class="f">--agent</text><text x="29.058" y="1.67" class="f">mock</text><text x="34.068" y="1.67" class="f">--config</text><text x="43.086" y="1.67" class="f">examples/bench.yaml</text><text x="63.126" y="1.67" class="f">--repo</text><text x="70.14" y="1.67" class="f">exam</text></svg><svg x="5772"><use xlink:href="#a"/><use xlink:href="#b" x="74.996"/><text y="1.67" class="f">$</text><text x="2.004" y="1.67" class="f">bun</text><text x="6.012" y="1.67" class="f">run</text><text x="10.02" y="1.67" class="f">src/cli.ts</text><text x="21.042" y="1.67" class="f">--agent</text><text x="29.058" y="1.67" class="f">mock</text><text x="34.068" y="1.67" class="f">--config</text><text x="43.086" y="1.67" class="f">examples/bench.yaml</text><text x="63.126" y="1.67" class="f">--repo</text><text x="70.14" y="1.67" class="f">examp</text></svg><svg x="5850"><use xlink:href="#a"/><use xlink:href="#b" x="75.996"/><text y="1.67" class="f">$</text><text x="2.004" y="1.67" class="f">bun</text><text x="6.012" y="1.67" class="f">run</text><text x="10.02" y="1.67" class="f">src/cli.ts</text><text x="21.042" y="1.67" class="f">--agent</text><text x="29.058" y="1.67" class="f">mock</text><text x="34.068" y="1.67" class="f">--config</text><text x="43.086" y="1.67" class="f">examples/bench.yaml</text><text x="63.126" y="1.67" class="f">--repo</text><text x="70.14" y="1.67" class="f">exampl</text></svg><svg x="5928"><use xlink:href="#a"/><use xlink:href="#b" x="76.996"/><text y="1.67" class="f">$</text><text x="2.004" y="1.67" class="f">bun</text><text x="6.012" y="1.67" class="f">run</text><text x="10.02" y="1.67" class="f">src/cli.ts</text><text x="21.042" y="1.67" class="f">--agent</text><text x="29.058" y="1.67" class="f">mock</text><text x="34.068" y="1.67" class="f">--config</text><text x="43.086" y="1.67" class="f">examples/bench.yaml</text><text x="63.126" y="1.67" class="f">--repo</text><text x="70.14" y="1.67" class="f">example</text></svg><svg x="6006"><use xlink:href="#a"/><use xlink:href="#b" x="77.996"/><use xlink:href="#10"/></svg><svg x="6084"><use xlink:href="#a"/><use xlink:href="#b" x=".996" y="2.146"/><use xlink:href="#10"/><text y="3.841" class="f">/</text></svg><svg x="6162"><use xlink:href="#a"/><use xlink:href="#b" x="1.996" y="2.146"/><use xlink:href="#10"/><text y="3.841" class="f">/f</text></svg><svg x="6240"><use xlink:href="#a"/><use xlink:href="#b" x="2.996" y="2.146"/><use xlink:href="#10"/><text y="3.841" class="f">/fi</text></svg><svg x="6318"><use xlink:href="#a"/><use xlink:href="#b" x="3.996" y="2.146"/><use xlink:href="#10"/><text y="3.841" class="f">/fix</text></svg><svg x="6396"><use xlink:href="#a"/><use xlink:href="#b" x="4.996" y="2.146"/><use xlink:href="#10"/><text y="3.841" class="f">/fixt</text></svg><svg x="6474"><use xlink:href="#a"/><use xlink:href="#b" x="5.996" y="2.146"/><use xlink:href="#10"/><text y="3.841" class="f">/fixtu</text></svg><svg x="6552"><use xlink:href="#a"/><use xlink:href="#b" x="6.996" y="2.146"/><use xlink:href="#10"/><text y="3.841" class="f">/fixtur</text></svg><svg x="6630"><use xlink:href="#a"/><use xlink:href="#b" x="7.996" y="2.146"/><use xlink:href="#10"/><use xlink:href="#11" y="2.171"/></svg><svg x="6708"><use xlink:href="#a"/><use xlink:href="#b" x="-.004" y="4.317"/><use xlink:href="#10"/><use xlink:href="#11" y="2.171"/></svg><svg x="6786"><use xlink:href="#a"/><use xlink:href="#b" x="-.004" y="6.488"/><use xlink:href="#10"/><use xlink:href="#11" y="2.171"/><use xlink:href="#12" y="4.342"/></svg><svg x="6864"><use xlink:href="#a"/><use xlink:href="#b" x="-.004" y="8.659"/><use xlink:href="#10"/><use xlink:href="#11" y="2.171"/><use xlink:href="#12" y="4.342"/><use xlink:href="#13" y="6.513"/></svg><svg x="6942"><use xlink:href="#a"/><use xlink:href="#b" x="-.004" y="10.83"/><use xlink:href="#10"/><use xlink:href="#11" y="2.171"/><use xlink:href="#12" y="4.342"/><use xlink:href="#13" y="6.513"/><use xlink:href="#14" y="8.684"/></svg><svg x="7020"><use xlink:href="#a"/><use xlink:href="#b" x="-.004" y="13.001"/><use xlink:href="#10"/><use xlink:href="#11" y="2.171"/><use xlink:href="#12" y="4.342"/><use xlink:href="#13" y="6.513"/><use xlink:href="#14" y="8.684"/><use xlink:href="#15" y="10.855"/></svg><svg x="7098"><use xlink:href="#a"/><use xlink:href="#b" x="-.004" y="15.172"/><use xlink:href="#10"/><use xlink:href="#11" y="2.171"/><use xlink:href="#12" y="4.342"/><use xlink:href="#13" y="6.513"/><use xlink:href="#14" y="8.684"/><use xlink:href="#15" y="10.855"/><use xlink:href="#16" y="13.026"/></svg><svg x="7176"><use xlink:href="#a"/><use xlink:href="#b" x="-.004" y="17.343"/><use xlink:href="#10"/><use xlink:href="#11" y="2.171"/><use xlink:href="#12" y="4.342"/><use xlink:href="#13" y="6.513"/><use xlink:href="#14" y="8.684"/><use xlink:href="#15" y="10.855"/><use xlink:href="#16" y="13.026"/><use xlink:href="#17" y="15.197"/></svg><svg x="7254"><use xlink:href="#a"/><use xlink:href="#b" x="-.004" y="19.514"/><use xlink:href="#10"/><use xlink:href="#11" y="2.171"/><use xlink:href="#12" y="4.342"/><use xlink:href="#13" y="6.513"/><use xlink:href="#14" y="8.684"/><use xlink:href="#15" y="10.855"/><use xlink:href="#16" y="13.026"/><use xlink:href="#17" y="15.197"/><use xlink:href="#18" y="17.368"/></svg><svg x="7332"><use xlink:href="#a"/><use xlink:href="#b" x="-.004" y="21.685"/><use xlink:href="#10"/><use xlink:href="#11" y="2.171"/><use xlink:href="#12" y="4.342"/><use xlink:href="#13" y="6.513"/><use xlink:href="#14" y="8.684"/><use xlink:href="#15" y="10.855"/><use xlink:href="#16" y="13.026"/><use xlink:href="#17" y="15.197"/><use xlink:href="#18" y="17.368"/><use xlink:href="#19" y="19.539"/></svg><svg x="7410"><use xlink:href="#a"/><use xlink:href="#b" x="-.004" y="23.856"/><use xlink:href="#10"/><use xlink:href="#11" y="2.171"/><use xlink:href="#12" y="4.342"/><use xlink:href="#13" y="6.513"/><use xlink:href="#14" y="8.684"/><use xlink:href="#15" y="10.855"/><use xlink:href="#16" y="13.026"/><use xlink:href="#17" y="15.197"/><use xlink:href="#18" y="17.368"/><use xlink:href="#19" y="19.539"/></svg><svg x="7488"><use xlink:href="#a"/><use xlink:href="#b" x="-.004" y="26.027"/><use xlink:href="#10"/><use xlink:href="#11" y="2.171"/><use xlink:href="#12" y="4.342"/><use xlink:href="#13" y="6.513"/><use xlink:href="#14" y="8.684"/><use xlink:href="#15" y="10.855"/><use xlink:href="#16" y="13.026"/><use xlink:href="#17" y="15.197"/><use xlink:href="#18" y="17.368"/><use xlink:href="#19" y="19.539"/><use xlink:href="#20" y="23.881"/></svg><svg x="7566"><use xlink:href="#a"/><use xlink:href="#b" x="-.004" y="28.198"/><use xlink:href="#10"/><use xlink:href="#11" y="2.171"/><use xlink:href="#12" y="4.342"/><use xlink:href="#13" y="6.513"/><use xlink:href="#14" y="8.684"/><use xlink:href="#15" y="10.855"/><use xlink:href="#16" y="13.026"/><use xlink:href="#17" y="15.197"/><use xlink:href="#18" y="17.368"/><use xlink:href="#19" y="19.539"/><use xlink:href="#20" y="23.881"/><use xlink:href="#21" y="26.052"/></svg><svg x="7644"><use xlink:href="#a"/><use xlink:href="#b" x="-.004" y="30.369"/><use xlink:href="#10"/><use xlink:href="#11" y="2.171"/><use xlink:href="#12" y="4.342"/><use xlink:href="#13" y="6.513"/><use xlink:href="#14" y="8.684"/><use xlink:href="#15" y="10.855"/><use xlink:href="#16" y="13.026"/><use xlink:href="#17" y="15.197"/><use xlink:href="#18" y="17.368"/><use xlink:href="#19" y="19.539"/><use xlink:href="#20" y="23.881"/><use xlink:href="#21" y="26.052"/><use xlink:href="#22" y="28.223"/></svg><svg x="7722"><use xlink:href="#a"/><use xlink:href="#b" x="-.004" y="32.54"/><use xlink:href="#10"/><use xlink:href="#11" y="2.171"/><use xlink:href="#12" y="4.342"/><use xlink:href="#13" y="6.513"/><use xlink:href="#14" y="8.684"/><use xlink:href="#15" y="10.855"/><use xlink:href="#16" y="13.026"/><use xlink:href="#17" y="15.197"/><use xlink:href="#18" y="17.368"/><use xlink:href="#19" y="19.539"/><use xlink:href="#20" y="23.881"/><use xlink:href="#21" y="26.052"/><use xlink:href="#22" y="28.223"/><use xlink:href="#23" y="30.394"/></svg><svg x="7800"><use xlink:href="#a"/><use xlink:href="#b" x="-.004" y="34.711"/><use xlink:href="#10"/><use xlink:href="#11" y="2.171"/><use xlink:href="#12" y="4.342"/><use xlink:href="#13" y="6.513"/><use xlink:href="#14" y="8.684"/><use xlink:href="#15" y="10.855"/><use xlink:href="#16" y="13.026"/><use xlink:href="#17" y="15.197"/><use xlink:href="#18" y="17.368"/><use xlink:href="#19" y="19.539"/><use xlink:href="#20" y="23.881"/><use xlink:href="#21" y="26.052"/><use xlink:href="#22" y="28.223"/><use xlink:href="#23" y="30.394"/><use xlink:href="#24" y="32.565"/></svg><svg x="7878"><use xlink:href="#a"/><use xlink:href="#b" x="-.004" y="36.882"/><use xlink:href="#10"/><use xlink:href="#11" y="2.171"/><use xlink:href="#12" y="4.342"/><use xlink:href="#13" y="6.513"/><use xlink:href="#14" y="8.684"/><use xlink:href="#15" y="10.855"/><use xlink:href="#16" y="13.026"/><use xlink:href="#17" y="15.197"/><use xlink:href="#18" y="17.368"/><use xlink:href="#19" y="19.539"/><use xlink:href="#20" y="23.881"/><use xlink:href="#21" y="26.052"/><use xlink:href="#22" y="28.223"/><use xlink:href="#23" y="30.394"/><use xlink:href="#24" y="32.565"/><use xlink:href="#25" y="34.736"/></svg><svg x="7956"><use xlink:href="#a"/><use xlink:href="#b" x="-.004" y="39.053"/><use xlink:href="#10"/><use xlink:href="#11" y="2.171"/><use xlink:href="#12" y="4.342"/><use xlink:href="#13" y="6.513"/><use xlink:href="#14" y="8.684"/><use xlink:href="#15" y="10.855"/><use xlink:href="#16" y="13.026"/><use xlink:href="#17" y="15.197"/><use xlink:href="#18" y="17.368"/><use xlink:href="#19" y="19.539"/><use xlink:href="#20" y="23.881"/><use xlink:href="#21" y="26.052"/><use xlink:href="#22" y="28.223"/><use xlink:href="#23" y="30.394"/><use xlink:href="#24" y="32.565"/><use xlink:href="#25" y="34.736"/></svg><svg x="8034"><use xlink:href="#a"/><use xlink:href="#b" x="-.004" y="41.224"/><use xlink:href="#10"/><use xlink:href="#11" y="2.171"/><use xlink:href="#12" y="4.342"/><use xlink:href="#13" y="6.513"/><use xlink:href="#14" y="8.684"/><use xlink:href="#15" y="10.855"/><use xlink:href="#16" y="13.026"/><use xlink:href="#17" y="15.197"/><use xlink:href="#18" y="17.368"/><use xlink:href="#19" y="19.539"/><use xlink:href="#20" y="23.881"/><use xlink:href="#21" y="26.052"/><use xlink:href="#22" y="28.223"/><use xlink:href="#23" y="30.394"/><use xlink:href="#24" y="32.565"/><use xlink:href="#25" y="34.736"/><use xlink:href="#26" y="39.078"/></svg><svg x="8112"><use xlink:href="#a"/><use xlink:href="#b" x="-.004" y="43.395"/><use xlink:href="#10"/><use xlink:href="#11" y="2.171"/><use xlink:href="#12" y="4.342"/><use xlink:href="#13" y="6.513"/><use xlink:href="#14" y="8.684"/><use xlink:href="#15" y="10.855"/><use xlink:href="#16" y="13.026"/><use xlink:href="#17" y="15.197"/><use xlink:href="#18" y="17.368"/><use xlink:href="#19" y="19.539"/><use xlink:href="#20" y="23.881"/><use xlink:href="#21" y="26.052"/><use xlink:href="#22" y="28.223"/><use xlink:href="#23" y="30.394"/><use xlink:href="#24" y="32.565"/><use xlink:href="#25" y="34.736"/><use xlink:href="#26" y="39.078"/><use xlink:href="#27" y="41.249"/></svg><svg x="8190"><use xlink:href="#a"/><use xlink:href="#b" x="-.004" y="45.566"/><use xlink:href="#10"/><use xlink:href="#11" y="2.171"/><use xlink:href="#12" y="4.342"/><use xlink:href="#13" y="6.513"/><use xlink:href="#14" y="8.684"/><use xlink:href="#15" y="10.855"/><use xlink:href="#16" y="13.026"/><use xlink:href="#17" y="15.197"/><use xlink:href="#18" y="17.368"/><use xlink:href="#19" y="19.539"/><use xlink:href="#20" y="23.881"/><use xlink:href="#21" y="26.052"/><use xlink:href="#22" y="28.223"/><use xlink:href="#23" y="30.394"/><use xlink:href="#24" y="32.565"/><use xlink:href="#25" y="34.736"/><use xlink:href="#26" y="39.078"/><use xlink:href="#27" y="41.249"/></svg><svg x="8268"><use xlink:href="#a"/><use xlink:href="#b" x="1.996" y="45.566"/><use xlink:href="#10"/><use xlink:href="#11" y="2.171"/><use xlink:href="#12" y="4.342"/><use xlink:href="#13" y="6.513"/><use xlink:href="#14" y="8.684"/><use xlink:href="#15" y="10.855"/><use xlink:href="#16" y="13.026"/><use xlink:href="#17" y="15.197"/><use xlink:href="#18" y="17.368"/><use xlink:href="#19" y="19.539"/><use xlink:href="#20" y="23.881"/><use xlink:href="#21" y="26.052"/><use xlink:href="#22" y="28.223"/><use xlink:href="#23" y="30.394"/><use xlink:href="#24" y="32.565"/><use xlink:href="#25" y="34.736"/><use xlink:href="#26" y="39.078"/><use xlink:href="#27" y="41.249"/><use xlink:href="#1" y="45.591"/></svg></svg></g></g></svg></svg>